<svg width="50" height="46" viewBox="0 0 50 46" fill="none" xmlns="http://www.w3.org/2000/svg">
<path d="M48.998 11.32C48.9981 11.0545 48.9459 10.7916 48.8444 10.5463C48.7429 10.301 48.5941 10.0781 48.4064 9.89029C48.2187 9.70252 47.9959 9.55357 47.7506 9.45194C47.5054 9.35031 47.2425 9.298 46.977 9.298H3.01999C2.75442 9.29787 2.49142 9.35008 2.24604 9.45165C2.00067 9.55322 1.77771 9.70216 1.58992 9.88994C1.40214 10.0777 1.2532 10.3007 1.15163 10.5461C1.05007 10.7914 0.997855 11.0544 0.997986 11.32V41.145C0.997986 41.9778 1.32881 42.7765 1.91767 43.3653C2.50654 43.9542 3.30521 44.285 4.13799 44.285H45.858C46.6908 44.285 47.4894 43.9542 48.0783 43.3653C48.6672 42.7765 48.998 41.9778 48.998 41.145V11.32Z" stroke="black" stroke-width="2" stroke-miterlimit="10" stroke-linecap="round" stroke-linejoin="round"/>
<path d="M32.31 9.298H17.687V3.528C17.687 2.527 18.498 1.715 19.5 1.715H30.499C31.499 1.715 32.312 2.527 32.312 3.528V9.298H32.31Z" stroke="black" stroke-width="2" stroke-miterlimit="10" stroke-linecap="round" stroke-linejoin="round"/>
<path d="M41.122 44.282V16.102M8.87201 44.282V16.102" stroke="black" stroke-width="2" stroke-miterlimit="10" stroke-linecap="round" stroke-linejoin="round"/>
<path d="M29.272 20.142C39.702 18.452 49.002 11.322 49.002 11.322M1.00201 11.322C1.00201 11.322 10.312 18.452 20.722 20.142" stroke="black" stroke-width="2" stroke-miterlimit="10" stroke-linecap="round" stroke-linejoin="round"/>
<path d="M29.372 20.512C29.372 21.669 27.412 22.599 25.002 22.599C22.582 22.599 20.622 21.669 20.622 20.512C20.622 20.357 20.652 20.214 20.722 20.071C21.152 19.129 22.902 18.425 25.002 18.425C27.092 18.425 28.842 19.129 29.272 20.071C29.342 20.214 29.372 20.357 29.372 20.512Z" stroke="black" stroke-width="2" stroke-miterlimit="10" stroke-linecap="round" stroke-linejoin="round"/>
</svg>
