<svg width="181" height="25" viewBox="0 0 181 25" fill="none" xmlns="http://www.w3.org/2000/svg">
<path d="M13.9432 7.125C13.8371 6.13258 13.3902 5.35985 12.6023 4.80682C11.822 4.25379 10.8068 3.97727 9.55682 3.97727C8.67803 3.97727 7.92424 4.10985 7.29545 4.375C6.66667 4.64015 6.18561 5 5.85227 5.45454C5.51894 5.90909 5.34849 6.42803 5.34091 7.01136C5.34091 7.49621 5.45076 7.91667 5.67045 8.27273C5.89773 8.62879 6.20455 8.93182 6.59091 9.18182C6.97727 9.42424 7.4053 9.62879 7.875 9.79545C8.3447 9.96212 8.81818 10.1023 9.29545 10.2159L11.4773 10.7614C12.3561 10.9659 13.2008 11.2424 14.0114 11.5909C14.8295 11.9394 15.5606 12.3788 16.2045 12.9091C16.8561 13.4394 17.3712 14.0795 17.75 14.8295C18.1288 15.5795 18.3182 16.4583 18.3182 17.4659C18.3182 18.8295 17.9697 20.0303 17.2727 21.0682C16.5758 22.0985 15.5682 22.9053 14.25 23.4886C12.9394 24.0644 11.3523 24.3523 9.48864 24.3523C7.67803 24.3523 6.10606 24.072 4.77273 23.5114C3.44697 22.9508 2.40909 22.1326 1.65909 21.0568C0.916667 19.9811 0.515152 18.6705 0.454545 17.125H4.60227C4.66288 17.9356 4.91288 18.6098 5.35227 19.1477C5.79167 19.6856 6.36364 20.0871 7.06818 20.3523C7.7803 20.6174 8.57576 20.75 9.45455 20.75C10.3712 20.75 11.1742 20.6136 11.8636 20.3409C12.5606 20.0606 13.1061 19.6742 13.5 19.1818C13.8939 18.6818 14.0947 18.0985 14.1023 17.4318C14.0947 16.8258 13.9167 16.3258 13.5682 15.9318C13.2197 15.5303 12.7311 15.197 12.1023 14.9318C11.4811 14.6591 10.7538 14.4167 9.92045 14.2045L7.27273 13.5227C5.35606 13.0303 3.84091 12.2841 2.72727 11.2841C1.62121 10.2765 1.06818 8.93939 1.06818 7.27273C1.06818 5.90151 1.43939 4.70076 2.18182 3.67045C2.93182 2.64015 3.95076 1.84091 5.23864 1.27273C6.52652 0.696969 7.98485 0.40909 9.61364 0.40909C11.2652 0.40909 12.7121 0.696969 13.9545 1.27273C15.2045 1.84091 16.1856 2.63258 16.8977 3.64773C17.6098 4.6553 17.9773 5.81439 18 7.125H13.9432ZM21.054 4.26136V0.727272H39.6222V4.26136H32.429V24H28.2472V4.26136H21.054ZM43.2017 24V0.727272H51.929C53.7169 0.727272 55.2169 1.03788 56.429 1.65909C57.6487 2.2803 58.5691 3.15151 59.1903 4.27273C59.8191 5.38636 60.1335 6.68561 60.1335 8.17045C60.1335 9.66288 59.8153 10.9583 59.179 12.0568C58.5502 13.1477 57.6222 13.9924 56.3949 14.5909C55.1676 15.1818 53.66 15.4773 51.8722 15.4773H45.6562V11.9773H51.304C52.3494 11.9773 53.2055 11.8333 53.8722 11.5455C54.5388 11.25 55.0313 10.822 55.3494 10.2614C55.6752 9.69318 55.8381 8.99621 55.8381 8.17045C55.8381 7.3447 55.6752 6.64015 55.3494 6.05682C55.0237 5.46591 54.5275 5.01894 53.8608 4.71591C53.1941 4.4053 52.3343 4.25 51.2812 4.25H47.4176V24H43.2017ZM55.2244 13.4545L60.9858 24H56.2812L50.6222 13.4545H55.2244ZM67.0028 24H62.5028L70.696 0.727272H75.9006L84.1051 24H79.6051L73.3892 5.5H73.2074L67.0028 24ZM67.1506 14.875H79.4233V18.2614H67.1506V14.875ZM89.8807 24L83.3125 0.727272H87.8466L92.0398 17.8295H92.2557L96.733 0.727272H100.858L105.347 17.8409H105.551L109.744 0.727272H114.278L107.71 24H103.551L98.892 7.67045H98.7102L94.0398 24H89.8807Z" fill="#073DA6"/>
<path d="M117.202 24V0.727272H126.111C127.793 0.727272 129.19 0.992423 130.304 1.52273C131.425 2.04545 132.262 2.76136 132.815 3.67045C133.376 4.57954 133.656 5.60985 133.656 6.76136C133.656 7.70833 133.474 8.51894 133.111 9.19318C132.747 9.85985 132.259 10.4015 131.645 10.8182C131.031 11.2348 130.346 11.5341 129.588 11.7159V11.9432C130.414 11.9886 131.205 12.2424 131.963 12.7045C132.728 13.1591 133.353 13.803 133.838 14.6364C134.323 15.4697 134.565 16.4773 134.565 17.6591C134.565 18.8636 134.274 19.947 133.69 20.9091C133.107 21.8636 132.228 22.6174 131.054 23.1705C129.88 23.7235 128.402 24 126.622 24H117.202ZM121.418 20.4773H125.952C127.482 20.4773 128.584 20.1856 129.259 19.6023C129.94 19.0114 130.281 18.2538 130.281 17.3295C130.281 16.6402 130.111 16.0189 129.77 15.4659C129.429 14.9053 128.944 14.4659 128.315 14.1477C127.687 13.822 126.937 13.6591 126.065 13.6591H121.418V20.4773ZM121.418 10.625H125.588C126.315 10.625 126.971 10.4924 127.554 10.2273C128.137 9.95454 128.596 9.57197 128.929 9.07955C129.27 8.57955 129.44 7.98864 129.44 7.30682C129.44 6.4053 129.122 5.66288 128.486 5.07954C127.857 4.49621 126.921 4.20454 125.679 4.20454H121.418V10.625ZM141.222 24H136.722L144.915 0.727272H150.119L158.324 24H153.824L147.608 5.5H147.426L141.222 24ZM141.369 14.875H153.642V18.2614H141.369V14.875ZM175.886 8.15909C175.697 7.54545 175.436 6.99621 175.102 6.51136C174.777 6.01894 174.383 5.59848 173.92 5.25C173.466 4.90151 172.943 4.64015 172.352 4.46591C171.761 4.28409 171.117 4.19318 170.42 4.19318C169.17 4.19318 168.057 4.50758 167.08 5.13636C166.102 5.76515 165.333 6.68939 164.773 7.90909C164.22 9.12121 163.943 10.5985 163.943 12.3409C163.943 14.0985 164.22 15.5871 164.773 16.8068C165.326 18.0265 166.095 18.9545 167.08 19.5909C168.064 20.2197 169.208 20.5341 170.511 20.5341C171.693 20.5341 172.716 20.3068 173.58 19.8523C174.451 19.3977 175.121 18.7538 175.591 17.9205C176.061 17.0795 176.295 16.0947 176.295 14.9659L177.25 15.1136H170.932V11.8182H180.375V14.6136C180.375 16.6061 179.951 18.3295 179.102 19.7841C178.254 21.2386 177.087 22.3598 175.602 23.1477C174.117 23.928 172.413 24.3182 170.489 24.3182C168.345 24.3182 166.462 23.8371 164.841 22.875C163.227 21.9053 161.966 20.5303 161.057 18.75C160.155 16.9621 159.705 14.8409 159.705 12.3864C159.705 10.5076 159.97 8.82954 160.5 7.35227C161.038 5.875 161.788 4.62121 162.75 3.59091C163.712 2.55303 164.841 1.76515 166.136 1.22727C167.432 0.681817 168.841 0.40909 170.364 0.40909C171.652 0.40909 172.852 0.598484 173.966 0.977272C175.08 1.34848 176.068 1.87879 176.932 2.56818C177.803 3.25758 178.519 4.07576 179.08 5.02273C179.64 5.9697 180.008 7.01515 180.182 8.15909H175.886Z" fill="black"/>
</svg>
